<svg width="162" height="76" viewBox="0 0 162 76" fill="none" xmlns="http://www.w3.org/2000/svg">
<path d="M36.9175 22.78C36.9975 22.78 37.0675 22.8125 37.1275 22.8775L37.705 23.5C37.265 24.01 36.73 24.4075 36.1 24.6925C35.475 24.9775 34.7175 25.12 33.8275 25.12C33.0575 25.12 32.3575 24.9875 31.7275 24.7225C31.0975 24.4525 30.56 24.0775 30.115 23.5975C29.67 23.1125 29.325 22.5325 29.08 21.8575C28.835 21.1825 28.7125 20.44 28.7125 19.63C28.7125 18.82 28.84 18.0775 29.095 17.4025C29.35 16.7275 29.7075 16.1475 30.1675 15.6625C30.6325 15.1775 31.1875 14.8025 31.8325 14.5375C32.4775 14.2675 33.19 14.1325 33.97 14.1325C34.735 14.1325 35.41 14.255 35.995 14.5C36.58 14.745 37.095 15.0775 37.54 15.4975L37.06 16.165C37.03 16.215 36.99 16.2575 36.94 16.2925C36.895 16.3225 36.8325 16.3375 36.7525 16.3375C36.6625 16.3375 36.5525 16.29 36.4225 16.195C36.2925 16.095 36.1225 15.985 35.9125 15.865C35.7025 15.745 35.44 15.6375 35.125 15.5425C34.81 15.4425 34.4225 15.3925 33.9625 15.3925C33.4075 15.3925 32.9 15.49 32.44 15.685C31.98 15.875 31.5825 16.1525 31.2475 16.5175C30.9175 16.8825 30.66 17.3275 30.475 17.8525C30.29 18.3775 30.1975 18.97 30.1975 19.63C30.1975 20.3 30.2925 20.8975 30.4825 21.4225C30.6775 21.9475 30.94 22.3925 31.27 22.7575C31.605 23.1175 31.9975 23.3925 32.4475 23.5825C32.9025 23.7725 33.3925 23.8675 33.9175 23.8675C34.2375 23.8675 34.525 23.85 34.78 23.815C35.04 23.775 35.2775 23.715 35.4925 23.635C35.7125 23.555 35.915 23.455 36.1 23.335C36.29 23.21 36.4775 23.0625 36.6625 22.8925C36.7475 22.8175 36.8325 22.78 36.9175 22.78ZM46.5995 21.01L44.912 16.6375C44.862 16.5075 44.8095 16.3575 44.7545 16.1875C44.6995 16.0125 44.647 15.8275 44.597 15.6325C44.492 16.0375 44.3845 16.375 44.2745 16.645L42.587 21.01H46.5995ZM49.6295 25H48.5045C48.3745 25 48.2695 24.9675 48.1895 24.9025C48.1095 24.8375 48.0495 24.755 48.0095 24.655L47.0045 22.06H42.182L41.177 24.655C41.147 24.745 41.0895 24.825 41.0045 24.895C40.9195 24.965 40.8145 25 40.6895 25H39.5645L43.862 14.2525H45.332L49.6295 25ZM58.7562 15.475H55.2762V25H53.8287V15.475H50.3412V14.2525H58.7562V15.475ZM66.5038 21.01L64.8163 16.6375C64.7663 16.5075 64.7138 16.3575 64.6588 16.1875C64.6038 16.0125 64.5513 15.8275 64.5013 15.6325C64.3963 16.0375 64.2888 16.375 64.1788 16.645L62.4913 21.01H66.5038ZM69.5338 25H68.4088C68.2788 25 68.1738 24.9675 68.0938 24.9025C68.0138 24.8375 67.9538 24.755 67.9138 24.655L66.9088 22.06H62.0863L61.0813 24.655C61.0513 24.745 60.9938 24.825 60.9088 24.895C60.8238 24.965 60.7188 25 60.5938 25H59.4688L63.7663 14.2525H65.2363L69.5338 25ZM78.5452 23.7775V25H72.4477V14.2525H73.8952V23.7775H78.5452ZM91.0847 19.63C91.0847 20.435 90.9572 21.175 90.7022 21.85C90.4472 22.52 90.0872 23.0975 89.6222 23.5825C89.1572 24.0675 88.5972 24.445 87.9422 24.715C87.2922 24.98 86.5722 25.1125 85.7822 25.1125C84.9922 25.1125 84.2722 24.98 83.6222 24.715C82.9722 24.445 82.4147 24.0675 81.9497 23.5825C81.4847 23.0975 81.1247 22.52 80.8697 21.85C80.6147 21.175 80.4872 20.435 80.4872 19.63C80.4872 18.825 80.6147 18.0875 80.8697 17.4175C81.1247 16.7425 81.4847 16.1625 81.9497 15.6775C82.4147 15.1875 82.9722 14.8075 83.6222 14.5375C84.2722 14.2675 84.9922 14.1325 85.7822 14.1325C86.5722 14.1325 87.2922 14.2675 87.9422 14.5375C88.5972 14.8075 89.1572 15.1875 89.6222 15.6775C90.0872 16.1625 90.4472 16.7425 90.7022 17.4175C90.9572 18.0875 91.0847 18.825 91.0847 19.63ZM89.5922 19.63C89.5922 18.97 89.5022 18.3775 89.3222 17.8525C89.1422 17.3275 88.8872 16.885 88.5572 16.525C88.2272 16.16 87.8272 15.88 87.3572 15.685C86.8872 15.49 86.3622 15.3925 85.7822 15.3925C85.2072 15.3925 84.6847 15.49 84.2147 15.685C83.7447 15.88 83.3422 16.16 83.0072 16.525C82.6772 16.885 82.4222 17.3275 82.2422 17.8525C82.0622 18.3775 81.9722 18.97 81.9722 19.63C81.9722 20.29 82.0622 20.8825 82.2422 21.4075C82.4222 21.9275 82.6772 22.37 83.0072 22.735C83.3422 23.095 83.7447 23.3725 84.2147 23.5675C84.6847 23.7575 85.2072 23.8525 85.7822 23.8525C86.3622 23.8525 86.8872 23.7575 87.3572 23.5675C87.8272 23.3725 88.2272 23.095 88.5572 22.735C88.8872 22.37 89.1422 21.9275 89.3222 21.4075C89.5022 20.8825 89.5922 20.29 89.5922 19.63ZM103.396 19.8325V23.9575C102.856 24.3475 102.279 24.64 101.664 24.835C101.054 25.025 100.384 25.12 99.6539 25.12C98.7889 25.12 98.0089 24.9875 97.3139 24.7225C96.6189 24.4525 96.0239 24.0775 95.5289 23.5975C95.0389 23.1125 94.6614 22.5325 94.3964 21.8575C94.1314 21.1825 93.9989 20.44 93.9989 19.63C93.9989 18.81 94.1264 18.0625 94.3814 17.3875C94.6414 16.7125 95.0089 16.135 95.4839 15.655C95.9589 15.17 96.5364 14.795 97.2164 14.53C97.8964 14.265 98.6564 14.1325 99.4964 14.1325C99.9214 14.1325 100.316 14.165 100.681 14.23C101.046 14.29 101.384 14.38 101.694 14.5C102.004 14.615 102.291 14.7575 102.556 14.9275C102.821 15.0925 103.069 15.28 103.299 15.49L102.886 16.15C102.821 16.25 102.736 16.315 102.631 16.345C102.531 16.37 102.419 16.345 102.294 16.27C102.174 16.2 102.036 16.115 101.881 16.015C101.726 15.915 101.536 15.82 101.311 15.73C101.091 15.635 100.829 15.555 100.524 15.49C100.224 15.425 99.8664 15.3925 99.4514 15.3925C98.8464 15.3925 98.2989 15.4925 97.8089 15.6925C97.3189 15.8875 96.9014 16.17 96.5564 16.54C96.2114 16.905 95.9464 17.35 95.7614 17.875C95.5764 18.395 95.4839 18.98 95.4839 19.63C95.4839 20.305 95.5789 20.91 95.7689 21.445C95.9639 21.975 96.2389 22.4275 96.5939 22.8025C96.9539 23.1725 97.3889 23.455 97.8989 23.65C98.4089 23.845 98.9814 23.9425 99.6164 23.9425C100.116 23.9425 100.559 23.8875 100.944 23.7775C101.334 23.6625 101.714 23.505 102.084 23.305V20.9425H100.411C100.316 20.9425 100.239 20.915 100.179 20.86C100.124 20.805 100.096 20.7375 100.096 20.6575V19.8325H103.396Z" fill="#FCF961"/>
<path d="M71.545 57.825C71.96 57.825 72.325 57.77 72.64 57.66C72.96 57.55 73.2275 57.3975 73.4425 57.2025C73.6625 57.0025 73.8275 56.765 73.9375 56.49C74.0475 56.215 74.1025 55.9125 74.1025 55.5825C74.1025 54.8975 73.89 54.3625 73.465 53.9775C73.045 53.5925 72.405 53.4 71.545 53.4H69.82V57.825H71.545ZM71.545 52.2525C72.225 52.2525 72.815 52.3325 73.315 52.4925C73.82 52.6475 74.2375 52.87 74.5675 53.16C74.8975 53.45 75.1425 53.8 75.3025 54.21C75.4675 54.62 75.55 55.0775 75.55 55.5825C75.55 56.0825 75.4625 56.54 75.2875 56.955C75.1125 57.37 74.855 57.7275 74.515 58.0275C74.18 58.3275 73.7625 58.5625 73.2625 58.7325C72.7675 58.8975 72.195 58.98 71.545 58.98H69.82V63H68.3725V52.2525H71.545ZM88.8113 57.63C88.8113 58.435 88.6838 59.175 88.4288 59.85C88.1738 60.52 87.8138 61.0975 87.3488 61.5825C86.8838 62.0675 86.3238 62.445 85.6688 62.715C85.0188 62.98 84.2988 63.1125 83.5088 63.1125C82.7188 63.1125 81.9988 62.98 81.3488 62.715C80.6988 62.445 80.1413 62.0675 79.6763 61.5825C79.2113 61.0975 78.8513 60.52 78.5963 59.85C78.3413 59.175 78.2138 58.435 78.2138 57.63C78.2138 56.825 78.3413 56.0875 78.5963 55.4175C78.8513 54.7425 79.2113 54.1625 79.6763 53.6775C80.1413 53.1875 80.6988 52.8075 81.3488 52.5375C81.9988 52.2675 82.7188 52.1325 83.5088 52.1325C84.2988 52.1325 85.0188 52.2675 85.6688 52.5375C86.3238 52.8075 86.8838 53.1875 87.3488 53.6775C87.8138 54.1625 88.1738 54.7425 88.4288 55.4175C88.6838 56.0875 88.8113 56.825 88.8113 57.63ZM87.3188 57.63C87.3188 56.97 87.2288 56.3775 87.0488 55.8525C86.8688 55.3275 86.6138 54.885 86.2838 54.525C85.9538 54.16 85.5538 53.88 85.0838 53.685C84.6138 53.49 84.0888 53.3925 83.5088 53.3925C82.9338 53.3925 82.4113 53.49 81.9413 53.685C81.4713 53.88 81.0688 54.16 80.7338 54.525C80.4038 54.885 80.1488 55.3275 79.9688 55.8525C79.7888 56.3775 79.6988 56.97 79.6988 57.63C79.6988 58.29 79.7888 58.8825 79.9688 59.4075C80.1488 59.9275 80.4038 60.37 80.7338 60.735C81.0688 61.095 81.4713 61.3725 81.9413 61.5675C82.4113 61.7575 82.9338 61.8525 83.5088 61.8525C84.0888 61.8525 84.6138 61.7575 85.0838 61.5675C85.5538 61.3725 85.9538 61.095 86.2838 60.735C86.6138 60.37 86.8688 59.9275 87.0488 59.4075C87.2288 58.8825 87.3188 58.29 87.3188 57.63ZM98.4905 61.7775V63H92.393V52.2525H93.8405V61.7775H98.4905ZM103.053 63H101.598V52.2525H103.053V63ZM114.57 53.475H111.09V63H109.642V53.475H106.155V52.2525H114.57V53.475ZM119.119 63H117.664V52.2525H119.119V63ZM130.914 60.78C130.994 60.78 131.064 60.8125 131.124 60.8775L131.701 61.5C131.261 62.01 130.726 62.4075 130.096 62.6925C129.471 62.9775 128.714 63.12 127.824 63.12C127.054 63.12 126.354 62.9875 125.724 62.7225C125.094 62.4525 124.556 62.0775 124.111 61.5975C123.666 61.1125 123.321 60.5325 123.076 59.8575C122.831 59.1825 122.709 58.44 122.709 57.63C122.709 56.82 122.836 56.0775 123.091 55.4025C123.346 54.7275 123.704 54.1475 124.164 53.6625C124.629 53.1775 125.184 52.8025 125.829 52.5375C126.474 52.2675 127.186 52.1325 127.966 52.1325C128.731 52.1325 129.406 52.255 129.991 52.5C130.576 52.745 131.091 53.0775 131.536 53.4975L131.056 54.165C131.026 54.215 130.986 54.2575 130.936 54.2925C130.891 54.3225 130.829 54.3375 130.749 54.3375C130.659 54.3375 130.549 54.29 130.419 54.195C130.289 54.095 130.119 53.985 129.909 53.865C129.699 53.745 129.436 53.6375 129.121 53.5425C128.806 53.4425 128.419 53.3925 127.959 53.3925C127.404 53.3925 126.896 53.49 126.436 53.685C125.976 53.875 125.579 54.1525 125.244 54.5175C124.914 54.8825 124.656 55.3275 124.471 55.8525C124.286 56.3775 124.194 56.97 124.194 57.63C124.194 58.3 124.289 58.8975 124.479 59.4225C124.674 59.9475 124.936 60.3925 125.266 60.7575C125.601 61.1175 125.994 61.3925 126.444 61.5825C126.899 61.7725 127.389 61.8675 127.914 61.8675C128.234 61.8675 128.521 61.85 128.776 61.815C129.036 61.775 129.274 61.715 129.489 61.635C129.709 61.555 129.911 61.455 130.096 61.335C130.286 61.21 130.474 61.0625 130.659 60.8925C130.744 60.8175 130.829 60.78 130.914 60.78Z" fill="#FCF961"/>
<rect x="2" y="1" width="128" height="36" stroke="#FBF747" stroke-width="2"/>
<rect x="41" y="37" width="118" height="36" stroke="#FBF747" stroke-width="2"/>
</svg>
